<svg xmlns="http://www.w3.org/2000/svg" viewBox="0 0 100 100">
  <defs>
    <linearGradient id="gradient" x1="0%" y1="0%" x2="100%" y2="100%">
      <stop offset="0%" stop-color="#3b82f6" />
      <stop offset="100%" stop-color="#1d4ed8" />
    </linearGradient>
  </defs>
  <circle cx="50" cy="50" r="45" fill="url(#gradient)" />
  <g fill="#ffffff">
    <path d="M50 20c-16.569 0-30 13.431-30 30 0 16.569 13.431 30 30 30 16.569 0 30-13.431 30-30 0-16.569-13.431-30-30-30zm0 54c-13.255 0-24-10.745-24-24s10.745-24 24-24 24 10.745 24 24-10.745 24-24 24z" />
    <path d="M53 35v-8h-6v8h-10l13 16 13-16h-10zm-9 30h12v-6H44v6z" />
    <rect x="35" y="50" width="30" height="6" rx="3" />
  </g>
</svg>